<svg xmlns="http://www.w3.org/2000/svg" viewBox="0 0 32 32" width="32" height="32">
  <style>
    .t{fill:#11151d}.f{fill:#ffffff}
    @media (prefers-color-scheme: dark){.t{fill:#ffffff}.f{fill:#11151d}}
  </style>
  <g class="t">
    <rect x="15.4" y="2.6" width="1.2" height="2.9"/>
    <circle cx="16" cy="2.4" r="0.85"/>
    <path d="M12.4 6.4 L19.6 6.4 L21.6 8.8 Q16 9.7 10.4 8.8 Z"/>
    <rect x="14" y="8.4" width="4" height="2.4"/>
    <path d="M10 10.6 L22 10.6 L24.4 13.4 Q16 14.5 7.6 13.4 Z"/>
    <rect x="12.5" y="13" width="7" height="2.6"/>
    <path d="M7.5 15.4 L24.5 15.4 L27.6 18.7 Q16 20.1 4.4 18.7 Z"/>
    <rect x="7" y="18.2" width="18" height="8.4" rx="0.8"/>
    <rect x="4.5" y="26" width="23" height="2.8" rx="0.6"/>
    <rect x="9.5" y="28.4" width="13" height="1.4"/>
  </g>
  <text class="f" x="16" y="22.6" text-anchor="middle" dominant-baseline="central"
        font-size="6.4" letter-spacing="-0.5"
        font-family="'Segoe UI Symbol','Noto Sans Symbols2','Apple Symbols',sans-serif">◕‿◕</text>
</svg>
